<?xml version="1.0" encoding="UTF-8"?><svg id="Layer_2" xmlns="http://www.w3.org/2000/svg" viewBox="0 0 1692 468"><defs><style>.cls-1{fill-rule:evenodd;stroke-width:0px;}</style></defs><g id="Layer_1-2"><path class="cls-1" d="m756,108h-90c-9.94,0-18,8.06-18,18v108c0,9.94,8.06,18,18,18h90c9.94,0,18-8.06,18-18v-108c0-9.94-8.06-18-18-18Zm0,126h-90v-108h90v108Zm144-126h-90c-9.94,0-18,8.06-18,18v108c0,9.94,8.06,18,18,18h90c9.94,0,18-8.06,18-18v-108c0-9.94-8.06-18-18-18Zm0,126h-90v-108h90v108ZM432,72h-216v396h36V108h180v144h-144v36h144c19.88,0,36-16.12,36-36V108c0-19.88-16.12-36-36-36Zm72,54h54v126h18v-126h54v-18h-126v18ZM36,36h252V0H0v108h144v288h36V72H36v-36Zm1260,72h-18v144h126v-18h-108v-126Zm-54,144h18V108h-18v144Zm288-144h-90c-9.94,0-18,8.06-18,18v108c0,9.94,8.06,18,18,18h90c9.94,0,18-8.06,18-18v-108c0-9.94-8.06-18-18-18Zm0,126h-90v-108h90v108Zm36-126v18h54v126h18v-126h54v-18h-126Zm-360,0h-108v144h18v-54h90c9.94,0,18-8.06,18-18v-54c0-9.94-8.06-18-18-18Zm0,72h-90v-54h90v54Zm-252-72h-18v144h126v-18h-108v-126Z"/></g></svg>